<svg xmlns="http://www.w3.org/2000/svg" width="49.594" height="69.563" viewBox="0 0 49.594 69.563">
  <path id="Icon_material-lightbulb-outline" data-name="Icon material-lightbulb-outline" d="M20.813,66.235a3.338,3.338,0,0,0,3.328,3.328H37.454a3.338,3.338,0,0,0,3.328-3.328V62.907H20.813ZM30.8,3A23.287,23.287,0,0,0,17.485,45.4v7.522a3.338,3.338,0,0,0,3.328,3.328H40.782a3.338,3.338,0,0,0,3.328-3.328V45.4A23.287,23.287,0,0,0,30.8,3Zm9.485,36.943-2.829,2v7.655H24.141V41.94l-2.829-2a16.641,16.641,0,1,1,18.971,0Z" transform="translate(-6 -1.5)" fill="none" stroke="#fff" stroke-width="3"/>
</svg>
