<svg xmlns="http://www.w3.org/2000/svg" width="65.508" height="65.507" viewBox="0 0 65.508 65.507">
  <path id="Icon_awesome-pencil-alt" data-name="Icon awesome-pencil-alt" d="M61.751,17.62l-5.718,5.718a1.49,1.49,0,0,1-2.108,0L40.158,9.571a1.49,1.49,0,0,1,0-2.108l5.718-5.718a5.966,5.966,0,0,1,8.421,0L61.751,9.2A5.944,5.944,0,0,1,61.751,17.62Zm-26.5-5.246L2.678,44.943.048,60.012A2.98,2.98,0,0,0,3.5,63.46l15.069-2.642L51.135,28.249a1.49,1.49,0,0,0,0-2.108L37.368,12.374a1.5,1.5,0,0,0-2.121,0ZM15.39,42.152a1.729,1.729,0,0,1,0-2.456l19.1-19.1a1.736,1.736,0,0,1,2.456,2.456l-19.1,19.1a1.729,1.729,0,0,1-2.456,0ZM10.913,52.583h5.953v4.5l-8,1.4L5.009,54.629l1.4-8h4.5Z" transform="translate(1.008 0.995)" fill="none" stroke="#fff" stroke-width="2"/>
</svg>
