<svg xmlns="http://www.w3.org/2000/svg" width="72.917" height="72.82" viewBox="0 0 72.917 72.82">
  <path id="Icon_awesome-tools" data-name="Icon awesome-tools" d="M69,54.481,52.873,38.358a10.223,10.223,0,0,0-11.758-1.914L26.438,21.768v-8.55L8.815,0,0,8.812,13.221,26.435h8.55L36.448,41.112A10.245,10.245,0,0,0,38.362,52.87L54.484,68.992a5.119,5.119,0,0,0,7.256,0L69,61.737a5.144,5.144,0,0,0,0-7.256Zm-23.323-23.5a14.486,14.486,0,0,1,10.312,4.268l2.671,2.671a19.489,19.489,0,0,0,6.03-4.062A19.8,19.8,0,0,0,69.9,15.035a1.648,1.648,0,0,0-2.767-.757L56.894,24.521l-9.349-1.556-1.556-9.349L56.233,3.373A1.662,1.662,0,0,0,55.448.592,19.833,19.833,0,0,0,36.641,5.81a19.511,19.511,0,0,0-5.672,14.264l11.3,11.3a15,15,0,0,1,3.4-.4ZM31.367,42.268l-7.807-7.807-20.983,21a8.811,8.811,0,0,0,12.46,12.46L32.056,50.9a14.785,14.785,0,0,1-.688-8.633ZM8.815,64.986a3.3,3.3,0,1,1,3.3-3.3A3.314,3.314,0,0,1,8.815,64.986Z" transform="translate(1.317 1.32)" fill="none" stroke="#fff" stroke-width="2"/>
</svg>
